<svg xmlns="http://www.w3.org/2000/svg" xmlns:xlink="http://www.w3.org/1999/xlink" fill="none" version="1.1" width="30" height="30" viewBox="0 0 30 30"><g><g><rect x="0" y="0" width="30" height="30" rx="0" fill="#D8D8D8" fill-opacity="0.009999999776482582"/></g><g><path d="M14.9996,12.02376C13.3561,12.02376,12.02376,13.3561,12.02376,14.9996C12.02376,16.6431,13.3561,17.9755,14.9996,17.9755C16.6431,17.9755,17.9755,16.6431,17.9755,14.9996C17.9755,13.3561,16.6431,12.02376,14.9996,12.02376ZM26.9158,9.08398C26.9096,8.157540000000001,26.7391,7.23955,26.4123,6.3726400000000005C25.925,5.08892,24.9112,4.0753900000000005,23.6274,3.5884080000000003C22.76,3.261434,21.8415,3.0909614,20.9145,3.0849172C19.3665,3,18.911099999999998,3,14.9996,3C11.08742,3,10.63127,3,9.08323,3.0841657C8.15704,3.090476,7.23931,3.260944,6.3726400000000005,3.587657C5.08892,4.07499,4.0753900000000005,5.0887899999999995,3.5884080000000003,6.3726400000000005C3.261609,7.23955,3.0911392,8.157540000000001,3.0849172,9.08398C3,10.63202,3,11.08817,3,15.0004C3,18.9118,3,19.368,3.0841657,20.916C3.0969408,21.8456,3.267527,22.7669,3.587657,23.6401C3.82813,24.2714,4.2001100000000005,24.844,4.68031,25.3197C5.15825,25.8025,5.735799999999999,26.1751,6.3726400000000005,26.4116C7.2391,26.7385,8.157399999999999,26.9091,9.08398,26.9151C10.63202,27,11.08817,27,15.0004,27C18.9118,27,19.368,27,20.916,26.9158C21.8427,26.9097,22.761,26.7392,23.6281,26.4123C24.2647,26.1755,24.842,25.8026,25.3197,25.3197C25.7995,24.8443,26.1718,24.2716,26.4116,23.6401C26.7385,22.7684,26.9091,21.8464,26.9151,20.916C27,19.368,27,18.9118,27,15.0004C27,11.08818,27,10.63203,26.9158,9.08398ZM23.8671,18.6841C23.8285,19.4246,23.6704,20.1539,23.3989,20.8439C22.9282,22.0068,22.006,22.929,20.8431,23.3997C20.1467,23.6562,19.4132,23.7983,18.6714,23.8205L11.32714,23.8205C10.58525,23.7983,9.85183,23.6562,9.15537,23.3997C8.560279999999999,23.1786,8.02285,22.8259,7.58327,22.3679C7.14831,21.9374,6.81238,21.4174,6.5988299999999995,20.8439C6.34176,20.148,6.2040500000000005,19.4138,6.19153,18.6721L6.19153,11.3279C6.2043099999999995,10.586179999999999,6.34183,9.85199,6.59958,9.15612C6.8206500000000005,8.561029999999999,7.17336,8.02361,7.63137,7.58402C8.06373,7.15142,8.58325,6.81583,9.15537,6.59959C9.85192,6.3435299999999994,10.585329999999999,6.201919999999999,11.32714,6.1802600000000005L18.6714,6.1802600000000005C19.4132,6.20216,20.1466,6.34402,20.8431,6.60034C21.4382,6.821400000000001,21.9756,7.17412,22.4152,7.63212C22.8502,8.062570000000001,23.1861,8.58264,23.3997,9.15612C23.6557,9.85267,23.7973,10.586079999999999,23.819,11.3279L23.819,15.0004C23.819,17.472,23.9032,17.7237,23.8671,18.6721L23.8671,18.6841ZM21.9471,9.75655C21.6581,8.972010000000001,21.0399,8.35351,20.2555,8.064219999999999C19.7231,7.87978,19.1625,7.79049,18.5992,7.80045L11.40004,7.80045C10.83342,7.80571,10.27282,7.91167,9.743780000000001,8.11231C8.97146,8.38814,8.35501,8.98269,8.05144,9.744530000000001C7.87756,10.278870000000001,7.79277,10.83817,7.80045,11.40004L7.80045,18.6C7.81247,19.1651,7.91768,19.7249,8.11231,20.2562C8.401440000000001,21.0405,9.019639999999999,21.6587,9.803889999999999,21.9478C10.3164,22.1357,10.85522,22.2409,11.40004,22.2597L18.6,22.2597C19.1661,22.2542,19.7269,22.1486,20.2562,21.9478C21.0405,21.6587,21.6587,21.0405,21.9478,20.2562C22.1484,19.7264,22.2544,19.1666,22.2597,18.6L22.2597,11.40079C22.2597,10.83342,22.1545,10.27207,21.9478,9.744530000000001L21.9478,9.7558L21.9471,9.75655ZM15.0004,19.5836C12.47062,19.5837,10.42172,17.529400000000003,10.428370000000001,14.9996C10.42838,12.46637,12.48317,10.41339,15.0164,10.41562C17.5497,10.41784,19.6008,12.47441,19.5964,15.0077C19.592,17.5409,17.5336,19.5903,15.0004,19.5836ZM19.8001,11.31587C19.2508,11.25767,18.834,10.794360000000001,18.834,10.24201C18.834,9.68966,19.2508,9.22635,19.8001,9.168140000000001C20.3493,9.22635,20.7662,9.68966,20.7662,10.24201C20.7662,10.794360000000001,20.3493,11.25767,19.8001,11.31587Z" fill="#BBBBBB" fill-opacity="1"/></g></g></svg>