<svg xmlns="http://www.w3.org/2000/svg" xmlns:xlink="http://www.w3.org/1999/xlink" fill="none" version="1.1" width="30" height="30" viewBox="0 0 30 30"><g><g><rect x="0" y="0" width="30" height="30" rx="0" fill="#D8D8D8" fill-opacity="0.009999999776482582"/></g><g><path d="M28.4149,8.12932C28.0929,6.89755,27.1441,5.927448,25.9394,5.598229Q23.7559,5,15,5Q6.2442,5,4.06058,5.598229C2.8559,5.9275,1.907111,6.89755,1.5850870000000001,8.12932Q1,10.361979999999999,1,15.0202Q1,19.6784,1.5850870000000001,21.9111C1.907111,23.1429,2.8559,24.0725,4.06058,24.4018Q6.2442,25,15,25Q23.7558,25,25.9394,24.4018C27.1441,24.0725,28.0929,23.1429,28.4149,21.9111Q29,19.6784,29,15.0202Q29,10.361979999999999,28.4149,8.12932ZM12.1363,19.249499999999998L12.1363,10.79088L19.4545,15.0203L12.1363,19.249499999999998Z" fill="#BBBBBB" fill-opacity="1"/></g></g></svg>