<?xml version="1.0" encoding="UTF-8"?> <svg xmlns="http://www.w3.org/2000/svg" width="16" height="16" viewBox="0 0 16 16" fill="none"><path d="M8.5 0.5C10.3565 0.5 12.137 1.2375 13.4497 2.55025C14.7625 3.86301 15.5 5.64348 15.5 7.5" stroke="#8C8C8C" stroke-linecap="round" stroke-linejoin="round"></path><path d="M8.5 3.5C9.56087 3.5 10.5783 3.92143 11.3284 4.67157C12.0786 5.42172 12.5 6.43913 12.5 7.5" stroke="#8C8C8C" stroke-linecap="round" stroke-linejoin="round"></path><path d="M8.5 7.5L7.5 8.5" stroke="#8C8C8C" stroke-linecap="round" stroke-linejoin="round"></path><path d="M2.54999 3.55005C1.23717 4.86287 0.499634 6.64344 0.499634 8.50005C0.499634 10.3567 1.23717 12.1372 2.54999 13.45C3.86281 14.7629 5.64338 15.5004 7.49999 15.5004C9.3566 15.5004 11.1372 14.7629 12.45 13.45L2.54999 3.55005Z" stroke="#8C8C8C" stroke-linecap="round" stroke-linejoin="round"></path></svg> 