<?xml version="1.0" encoding="UTF-8"?> <svg xmlns="http://www.w3.org/2000/svg" width="16" height="16" viewBox="0 0 16 16" fill="none"><path d="M5.5 1.5H2.5C1.94772 1.5 1.5 1.94772 1.5 2.5V5.5C1.5 6.05228 1.94772 6.5 2.5 6.5H5.5C6.05228 6.5 6.5 6.05228 6.5 5.5V2.5C6.5 1.94772 6.05228 1.5 5.5 1.5Z" stroke="#8C8C8C" stroke-linecap="round" stroke-linejoin="round"></path><path d="M11.2927 1.17182L9.17134 3.29314C8.78082 3.68366 8.78082 4.31683 9.17134 4.70735L11.2927 6.82867C11.6832 7.2192 12.3163 7.2192 12.7069 6.82867L14.8282 4.70735C15.2187 4.31683 15.2187 3.68366 14.8282 3.29314L12.7069 1.17182C12.3163 0.781293 11.6832 0.781293 11.2927 1.17182Z" stroke="#8C8C8C" stroke-linecap="round" stroke-linejoin="round"></path><path d="M5.5 9.5H2.5C1.94772 9.5 1.5 9.94772 1.5 10.5V13.5C1.5 14.0523 1.94772 14.5 2.5 14.5H5.5C6.05228 14.5 6.5 14.0523 6.5 13.5V10.5C6.5 9.94772 6.05228 9.5 5.5 9.5Z" stroke="#8C8C8C" stroke-linecap="round" stroke-linejoin="round"></path><path d="M13.5 9.5H10.5C9.94772 9.5 9.5 9.94772 9.5 10.5V13.5C9.5 14.0523 9.94772 14.5 10.5 14.5H13.5C14.0523 14.5 14.5 14.0523 14.5 13.5V10.5C14.5 9.94772 14.0523 9.5 13.5 9.5Z" stroke="#8C8C8C" stroke-linecap="round" stroke-linejoin="round"></path></svg> 