<?xml version="1.0" encoding="UTF-8"?> <svg xmlns="http://www.w3.org/2000/svg" width="40" height="40" viewBox="0 0 40 40" fill="none"><circle cx="24" cy="24" r="16" fill="#F8EBFF"></circle><g clip-path="url(#clip0_91_33498)"><path d="M21 30.75V26" stroke="#5B2379" stroke-width="2" stroke-miterlimit="10" stroke-linecap="round" stroke-linejoin="round"></path><path d="M11 26V30.75" stroke="#5B2379" stroke-width="2" stroke-miterlimit="10" stroke-linecap="round" stroke-linejoin="round"></path><path d="M16 1.25V6" stroke="#5B2379" stroke-width="2" stroke-miterlimit="10" stroke-linecap="round" stroke-linejoin="round"></path><path d="M21 1.25V6" stroke="#5B2379" stroke-width="2" stroke-miterlimit="10" stroke-linecap="round" stroke-linejoin="round"></path><path d="M11 6V1.25" stroke="#5B2379" stroke-width="2" stroke-miterlimit="10" stroke-linecap="round" stroke-linejoin="round"></path><path d="M1.25 21H6" stroke="#5B2379" stroke-width="2" stroke-miterlimit="10" stroke-linecap="round" stroke-linejoin="round"></path><path d="M6 11H1.25" stroke="#5B2379" stroke-width="2" stroke-miterlimit="10" stroke-linecap="round" stroke-linejoin="round"></path><path d="M16 30.75V26" stroke="#5B2379" stroke-width="2" stroke-miterlimit="10" stroke-linecap="round" stroke-linejoin="round"></path><path d="M30.75 11H26" stroke="#5B2379" stroke-width="2" stroke-miterlimit="10" stroke-linecap="round" stroke-linejoin="round"></path><path d="M30.75 16H26V11C26 8.23856 23.7614 6 21 6H11C8.23856 6 6 8.23856 6 11V21C6 23.7614 8.23856 26 11 26H21C23.7614 26 26 23.7614 26 21H30.75" stroke="#5B2379" stroke-width="2" stroke-miterlimit="10" stroke-linecap="round" stroke-linejoin="round"></path><path d="M1.25 16H6" stroke="#5B2379" stroke-width="2" stroke-miterlimit="10" stroke-linecap="round" stroke-linejoin="round"></path><circle cx="21" cy="11" r="1.25" fill="#23B9D6"></circle><circle cx="11" cy="11" r="1.25" fill="#23B9D6"></circle><circle cx="21" cy="21" r="1.25" fill="#23B9D6"></circle><circle cx="11" cy="21" r="1.25" fill="#23B9D6"></circle></g><defs><clipPath id="clip0_91_33498"><rect width="32" height="32" fill="white"></rect></clipPath></defs></svg> 