<?xml version="1.0" encoding="UTF-8"?> <svg xmlns="http://www.w3.org/2000/svg" width="16" height="16" viewBox="0 0 16 16" fill="none"><path d="M15 9.5C15 9.95833 14.9089 10.3776 14.7266 10.7578C14.5443 11.138 14.3021 11.4375 14 11.6562C14.0312 12.5208 13.6979 13.2969 13 13.9844C12.375 14.6094 11.6615 14.9427 10.8594 14.9844C10.6927 15.276 10.3932 15.5182 9.96094 15.7109C9.52865 15.9036 9.04167 16 8.5 16C7.95833 16 7.47135 15.9036 7.03906 15.7109C6.60677 15.5182 6.30729 15.276 6.14062 14.9844C5.33854 14.9427 4.625 14.6094 4 13.9844C3.30208 13.2969 2.96875 12.5208 3 11.6562C2.69792 11.4375 2.45573 11.138 2.27344 10.7578C2.09115 10.3776 2 9.95833 2 9.5C2 9.03125 2.09896 8.59896 2.29688 8.20312C2.49479 7.80729 2.75521 7.50521 3.07812 7.29688C2.96354 6.91146 2.97396 6.49479 3.10938 6.04688C3.24479 5.59896 3.48958 5.19792 3.84375 4.84375C4.15625 4.54167 4.51562 4.3125 4.92188 4.15625C4.42188 3.89583 3.9974 3.51302 3.64844 3.00781C3.29948 2.5026 3.08333 1.97396 3 1.42188C3.29167 0.984375 3.67969 0.638021 4.16406 0.382812C4.64844 0.127604 5.17708 0 5.75 0C6.32292 0 6.85156 0.127604 7.33594 0.382812C7.82031 0.638021 8.20833 0.984375 8.5 1.42188C8.79167 0.984375 9.17969 0.638021 9.66406 0.382812C10.1484 0.127604 10.6771 0 11.25 0C11.8229 0 12.3516 0.127604 12.8359 0.382812C13.3203 0.638021 13.7083 0.984375 14 1.42188C13.9167 1.97396 13.7005 2.5026 13.3516 3.00781C13.0026 3.51302 12.5729 3.89583 12.0625 4.15625C12.4792 4.3125 12.8438 4.54167 13.1562 4.84375C13.5104 5.19792 13.7552 5.59896 13.8906 6.04688C14.026 6.49479 14.0365 6.91146 13.9219 7.29688C14.2448 7.50521 14.5052 7.80729 14.7031 8.20312C14.901 8.59896 15 9.03125 15 9.5ZM10.9062 13.9375C11.4167 13.8333 11.8646 13.599 12.25 13.2344C12.5729 12.9323 12.7891 12.651 12.8984 12.3906C13.0078 12.1302 13.0312 11.901 12.9688 11.7031C12.9062 11.5052 12.7708 11.3073 12.5625 11.1094C12.4062 10.974 12.2344 10.8542 12.0469 10.75L12.0312 10.7656L12 10.7812C11.8646 10.8542 11.6979 10.9115 11.5 10.9531V11C11.5 11.8333 11.2031 12.5417 10.6094 13.125C10.7448 13.4479 10.8438 13.7188 10.9062 13.9375ZM11.6875 8.03125C11.4479 7.63542 11.1016 7.34115 10.6484 7.14844C10.1953 6.95573 9.8099 6.94271 9.49219 7.10938C9.17448 7.27604 9.01042 7.61198 9 8.11719C8.98958 8.6224 9.13021 9 9.42188 9.25C9.84896 9.625 10.263 9.86198 10.6641 9.96094C11.0651 10.0599 11.3646 10.0104 11.5625 9.8125C11.8333 9.5625 11.9792 9.30208 12 9.03125C12.0208 8.76042 11.9167 8.42708 11.6875 8.03125ZM8.5 15C8.91667 15 9.27083 14.9036 9.5625 14.7109C9.85417 14.5182 10 14.2812 10 14C10 13.8854 9.96354 13.7656 9.89062 13.6406C9.44271 13.8802 8.97917 14 8.5 14C8.02083 14 7.55729 13.8802 7.10938 13.6406C7.03646 13.7656 7 13.8854 7 14C7 14.2812 7.14583 14.5182 7.4375 14.7109C7.72917 14.9036 8.08333 15 8.5 15ZM8.5 13C9.03125 13 9.4974 12.8385 9.89844 12.5156C10.2995 12.1927 10.5 11.8542 10.5 11.5C10.5 11.3333 10.4688 11.1354 10.4062 10.9062C9.60417 10.6979 8.96875 10.2344 8.5 9.51562C8.03125 10.2344 7.39583 10.6979 6.59375 10.9062C6.53125 11.125 6.5 11.3229 6.5 11.5C6.5 11.8542 6.70052 12.1927 7.10156 12.5156C7.5026 12.8385 7.96875 13 8.5 13ZM7.50781 7.10938C7.1901 6.94271 6.80469 6.95573 6.35156 7.14844C5.89844 7.34115 5.55208 7.63542 5.3125 8.03125C5.08333 8.42708 4.97917 8.76042 5 9.03125C5.02083 9.30208 5.16667 9.5625 5.4375 9.8125C5.63542 10.0104 5.9349 10.0599 6.33594 9.96094C6.73698 9.86198 7.15104 9.625 7.57812 9.25C7.86979 9 8.01042 8.6224 8 8.11719C7.98958 7.61198 7.82552 7.27604 7.50781 7.10938ZM4.75 13.2344C5.13542 13.599 5.58333 13.8333 6.09375 13.9375C6.15625 13.7188 6.25521 13.4479 6.39062 13.125C5.79688 12.5417 5.5 11.8333 5.5 11V10.9531C5.3125 10.9115 5.14583 10.8542 5 10.7812C4.98958 10.7812 4.97917 10.776 4.96875 10.7656L4.95312 10.75C4.76562 10.8542 4.59375 10.974 4.4375 11.1094C4.22917 11.3073 4.09375 11.5052 4.03125 11.7031C3.96875 11.901 3.99219 12.1302 4.10156 12.3906C4.21094 12.651 4.42708 12.9323 4.75 13.2344ZM3 9.5C3 9.92708 3.09375 10.3125 3.28125 10.6562C3.35417 10.5521 3.42188 10.4688 3.48438 10.4062C3.67188 10.2188 3.92708 10.099 4.25 10.0469C3.91667 9.43229 3.90625 8.75521 4.21875 8.01562C4.11458 8.00521 4.04167 8 4 8C3.69792 8 3.45573 8.11979 3.27344 8.35938C3.09115 8.59896 3 8.97917 3 9.5ZM4.65625 5.65625C4.26042 6.05208 4.04167 6.5 4 7C4.25 7 4.49479 7.0625 4.73438 7.1875C5.19271 6.625 5.75 6.26042 6.40625 6.09375C6.14583 5.77083 6.01042 5.41146 6 5.01562C5.5 5.05729 5.05208 5.27083 4.65625 5.65625ZM5.84375 1C5.51042 1 5.15104 1.05208 4.76562 1.15625C4.38021 1.26042 4.125 1.375 4 1.5C4.08333 1.96875 4.33333 2.41927 4.75 2.85156C5.16667 3.28385 5.63021 3.5 6.14062 3.5C6.33854 3.5 6.53125 3.47917 6.71875 3.4375C6.63542 3.28125 6.53385 3.1224 6.41406 2.96094C6.29427 2.79948 6.15885 2.64062 6.00781 2.48438C5.85677 2.32812 5.73438 2.20052 5.64062 2.10156C5.54688 2.0026 5.42188 1.88281 5.26562 1.74219C5.10938 1.60156 5.02083 1.52083 5 1.5C5.53125 1.57292 6.03646 1.73958 6.51562 2C6.99479 2.26042 7.39583 2.58333 7.71875 2.96875C7.84375 2.86458 7.9375 2.77083 8 2.6875V2.67188C8 2.20312 7.78906 1.80729 7.36719 1.48438C6.94531 1.16146 6.4375 1 5.84375 1ZM8.5 4C8.08333 4 7.72917 4.14583 7.4375 4.4375C7.14583 4.72917 7 5.08333 7 5.5C7 5.66667 7.03125 5.83333 7.09375 6C7.42708 6 7.72917 6.07292 8 6.21875C8.17708 6.30208 8.34375 6.43229 8.5 6.60938C8.65625 6.43229 8.82292 6.30208 9 6.21875C9.27083 6.07292 9.57292 6 9.90625 6C9.96875 5.82292 10 5.65625 10 5.5C10 5.08333 9.85417 4.72917 9.5625 4.4375C9.27083 4.14583 8.91667 4 8.5 4ZM13 1.5C12.875 1.375 12.6198 1.26042 12.2344 1.15625C11.849 1.05208 11.4948 1 11.1719 1C10.5677 1 10.0547 1.16146 9.63281 1.48438C9.21094 1.80729 9 2.20312 9 2.67188V2.6875C9.0625 2.77083 9.15625 2.86458 9.28125 2.96875C9.60417 2.58333 10.0052 2.26042 10.4844 2C10.9635 1.73958 11.4688 1.57292 12 1.5C11.9792 1.52083 11.8906 1.60156 11.7344 1.74219C11.5781 1.88281 11.4531 2.0026 11.3594 2.10156C11.2656 2.20052 11.1432 2.32812 10.9922 2.48438C10.8411 2.64062 10.7057 2.79948 10.5859 2.96094C10.4661 3.1224 10.3646 3.28125 10.2812 3.4375C10.4688 3.47917 10.6615 3.5 10.8594 3.5C11.3698 3.5 11.8333 3.28385 12.25 2.85156C12.6667 2.41927 12.9167 1.96875 13 1.5ZM12.3438 5.65625C11.9479 5.27083 11.5 5.05729 11 5.01562C11 5.41146 10.8646 5.77083 10.5938 6.09375C11.25 6.26042 11.8073 6.625 12.2656 7.1875C12.5052 7.0625 12.75 7 13 7C12.9583 6.5 12.7396 6.05208 12.3438 5.65625ZM13 8C12.9583 8 12.8854 8.00521 12.7812 8.01562C13.0938 8.75521 13.0833 9.43229 12.75 10.0469C13.0729 10.099 13.3281 10.2188 13.5156 10.4062C13.5781 10.4583 13.6458 10.5417 13.7188 10.6562C13.9062 10.3125 14 9.92708 14 9.5C14 8.5 13.6667 8 13 8Z" fill="#8C8C8C"></path></svg> 