<?xml version="1.0" encoding="UTF-8"?> <svg xmlns="http://www.w3.org/2000/svg" width="16" height="16" viewBox="0 0 16 16" fill="none"><path d="M13.0159 5.49744L12.7532 5.23487L13.0534 4.9348L13.3161 4.67223L13.7758 4.21275C14.0854 3.9033 14.0854 3.39692 13.7758 3.08747L13.3161 2.62799L13.1848 2.4967L12.4812 1.79341C10.089 -0.597802 6.18637 -0.597802 3.79416 1.79341C1.40195 4.18462 1.40195 8.08557 3.79416 10.4768L4.05683 10.7393L3.0249 11.7708C2.8748 11.9209 2.79037 12.1178 2.79037 12.3335C2.79037 12.5492 2.8748 12.7461 3.0249 12.8961L3.6253 13.4963L4.32889 14.1996C5.49216 15.3623 7.03068 16 8.67239 16C10.3141 16 11.8526 15.3623 13.0159 14.1996C15.4175 11.7802 15.4175 7.88864 13.0159 5.49744ZM4.52589 2.50608C6.51471 0.518095 9.76061 0.518095 11.7588 2.50608L12.4624 3.20938L12.5937 3.34066C12.7532 3.50945 12.7532 3.77201 12.5937 3.94081L12.3311 4.20337C12.1622 4.37216 11.8995 4.37216 11.7307 4.20337L11.5993 4.07209L10.8957 3.36879C9.37598 1.84967 6.90872 1.84967 5.38897 3.36879C4.65723 4.1096 4.25384 5.08484 4.25384 6.12571C4.25384 7.16659 4.65723 8.14183 5.39835 8.87326L7.5185 10.9925L7.64984 11.1238C7.93128 11.4051 8.30652 11.5458 8.68177 11.5458C9.05702 11.5458 9.42289 11.4051 9.71371 11.1238L9.84504 10.9925L9.97638 10.8612C10.5393 10.2986 10.5393 9.37026 9.97638 8.80762L9.84504 8.67634L7.71551 6.55707C7.48098 6.32264 7.48098 5.92879 7.71551 5.69436C7.82808 5.58183 7.98756 5.51619 8.14704 5.51619C8.30652 5.51619 8.46601 5.58183 8.57858 5.69436L10.6987 7.81363C11.8151 8.92952 11.8151 10.7393 10.6987 11.8552C9.58237 12.9711 7.77179 12.9711 6.65543 11.8552L5.95184 11.1519L5.8205 11.0207L5.35144 10.5518L4.52589 9.72659C2.53707 7.74799 2.53707 4.50344 4.52589 2.50608ZM12.2935 13.4494C11.3273 14.4152 10.042 14.9497 8.68177 14.9497C7.3215 14.9497 6.03627 14.4152 5.07 13.4494L4.36641 12.7461L4.23508 12.6148C4.07559 12.446 4.07559 12.1834 4.23508 12.024L4.49775 11.7615C4.66661 11.6021 4.92929 11.6021 5.09815 11.7615L5.22949 11.8927L5.93308 12.596C6.69296 13.3556 7.68736 13.7307 8.68177 13.7307C9.67618 13.7307 10.68 13.3556 11.4305 12.596C12.9502 11.0769 12.9502 8.6107 11.4305 7.09158L9.30093 4.96293L9.1696 4.83165C8.60672 4.26901 7.67798 4.26901 7.11511 4.83165L6.85244 5.09421C6.28956 5.65685 6.28956 6.5852 6.85244 7.14784L6.98377 7.27912L9.10393 9.39839C9.2165 9.51092 9.28217 9.67033 9.28217 9.82974C9.28217 9.98916 9.2165 10.1486 9.10393 10.2611C8.8694 10.4955 8.47539 10.4955 8.24086 10.2611L6.1207 8.14183C5.57659 7.60733 5.28577 6.88527 5.28577 6.12571C5.28577 5.36615 5.58597 4.6441 6.1207 4.10022C7.23707 2.98432 9.04764 2.98432 10.164 4.10022L10.8676 4.80352L10.9989 4.9348L11.4586 5.39429L12.2842 6.21949C14.2824 8.21685 14.2824 11.4614 12.2935 13.4494Z" fill="#8C8C8C"></path></svg> 