<?xml version="1.0" encoding="UTF-8"?> <svg xmlns="http://www.w3.org/2000/svg" width="16" height="16" viewBox="0 0 16 16" fill="none"><path d="M0.5 11C0.5 11 3.5 6.5 8 6.5C12.5 6.5 15.5 11 15.5 11C15.5 11 12.5 15.5 8 15.5C3.5 15.5 0.5 11 0.5 11Z" stroke="#8C8C8C" stroke-linecap="round" stroke-linejoin="round"></path><path d="M8 13.5C9.38071 13.5 10.5 12.3807 10.5 11C10.5 9.61929 9.38071 8.5 8 8.5C6.61929 8.5 5.5 9.61929 5.5 11C5.5 12.3807 6.61929 13.5 8 13.5Z" stroke="#8C8C8C" stroke-linecap="round" stroke-linejoin="round"></path><path d="M2 3.5C2.6986 2.56853 3.60448 1.8125 4.6459 1.2918C5.68731 0.771088 6.83566 0.5 8 0.5C9.16434 0.5 10.3127 0.771088 11.3541 1.2918C12.3955 1.8125 13.3014 2.56853 14 3.5" stroke="#8C8C8C" stroke-linecap="round" stroke-linejoin="round"></path><path d="M5 4.6459C5.82503 3.90797 6.8931 3.5 8 3.5C9.1069 3.5 10.175 3.90797 11 4.6459" stroke="#8C8C8C" stroke-linecap="round" stroke-linejoin="round"></path></svg> 