<?xml version="1.0" encoding="UTF-8"?> <svg xmlns="http://www.w3.org/2000/svg" width="40" height="40" viewBox="0 0 40 40" fill="none"><circle cx="24" cy="24" r="16" fill="#F8EBFF"></circle><path d="M16 28.8889C23.732 28.8889 30 23.3173 30 16.4444C30 9.57157 23.732 4 16 4C8.26801 4 2 9.57157 2 16.4444C2 18.8933 2.79577 21.177 4.16998 23.1023L2 28.8889L9.3806 27.4128C11.3516 28.3546 13.6056 28.8889 16 28.8889Z" stroke="#5B2379" stroke-width="2" stroke-linecap="round" stroke-linejoin="round"></path><path d="M10.5 16.25C10.5 16.9404 9.94036 17.5 9.25 17.5C8.55964 17.5 8 16.9404 8 16.25C8 15.5596 8.55964 15 9.25 15C9.94036 15 10.5 15.5596 10.5 16.25Z" fill="#139DB8"></path><path d="M17 16.25C17 16.9404 16.4404 17.5 15.75 17.5C15.0596 17.5 14.5 16.9404 14.5 16.25C14.5 15.5596 15.0596 15 15.75 15C16.4404 15 17 15.5596 17 16.25Z" fill="#139DB8"></path><path d="M23.5 16.25C23.5 16.9404 22.9404 17.5 22.25 17.5C21.5596 17.5 21 16.9404 21 16.25C21 15.5596 21.5596 15 22.25 15C22.9404 15 23.5 15.5596 23.5 16.25Z" fill="#139DB8"></path></svg> 