<?xml version="1.0" encoding="UTF-8"?> <svg xmlns="http://www.w3.org/2000/svg" width="40" height="40" viewBox="0 0 40 40" fill="none"><circle cx="24" cy="24" r="16" fill="#F8EBFF"></circle><mask id="mask0_91_33480" style="mask-type:luminance" maskUnits="userSpaceOnUse" x="0" y="0" width="32" height="32"><path d="M0 1.90735e-06H32V32H0V1.90735e-06Z" fill="white"></path></mask><g mask="url(#mask0_91_33480)"><path d="M17.1425 1.68998L17.8398 2.32073C18.2461 2.68817 18.8045 2.83779 19.34 2.72267L20.2594 2.52516C21.1145 2.34148 21.9697 2.83523 22.2381 3.6676L22.5267 4.56254C22.6949 5.08391 23.1036 5.4926 23.625 5.66079L24.5199 5.94935C25.3523 6.21779 25.8461 7.07304 25.6623 7.9281L25.4648 8.84748C25.3497 9.38304 25.4993 9.94135 25.8668 10.3477L26.4975 11.0451C27.0841 11.6937 27.0841 12.6813 26.4975 13.3299L25.8668 14.0274C25.4993 14.4337 25.3497 14.992 25.4648 15.5275L25.6623 16.4469C25.8461 17.302 25.3523 18.1572 24.5199 18.4257L23.625 18.7142C23.1036 18.8824 22.6949 19.2911 22.5267 19.8124L22.2381 20.7074C21.9697 21.5398 21.1145 22.0336 20.2594 21.8499L19.34 21.6523C18.8045 21.5372 18.2461 21.6869 17.8398 22.0543L17.1425 22.685C16.4938 23.2717 15.5062 23.2717 14.8575 22.685L14.1601 22.0543C13.7538 21.6869 13.1956 21.5372 12.66 21.6523L11.7406 21.8499C10.8856 22.0336 10.0303 21.5398 9.76183 20.7074L9.47327 19.8124C9.30514 19.2911 8.89639 18.8824 8.37508 18.7142L7.48008 18.4257C6.6477 18.1572 6.15395 17.302 6.33764 16.4469L6.5352 15.5275C6.65027 14.992 6.50064 14.4337 6.13327 14.0274L5.50252 13.3299C4.91583 12.6813 4.91583 11.6937 5.50252 11.0451L6.13327 10.3477C6.50064 9.94135 6.65027 9.38304 6.5352 8.84748L6.33764 7.9281C6.15395 7.07304 6.6477 6.21779 7.48008 5.94935L8.37508 5.66079C8.89639 5.4926 9.30514 5.08391 9.47327 4.56254L9.76183 3.6676C10.0303 2.83523 10.8856 2.34148 11.7406 2.52516L12.66 2.72267C13.1956 2.83779 13.7538 2.68817 14.1601 2.32073L14.8575 1.68998C15.5062 1.10335 16.4938 1.10335 17.1425 1.68998Z" stroke="#5B2379" stroke-width="2" stroke-miterlimit="10" stroke-linecap="round" stroke-linejoin="round"></path><path d="M9.75 26.5625V28.9753C9.75 30.527 11.6036 31.3286 12.7341 30.2659L14.6007 28.5422C15.3909 27.8125 16.6091 27.8125 17.3993 28.5422L19.2659 30.2659C20.3964 31.3286 22.25 30.527 22.25 28.9753V26.5625" stroke="#5B2379" stroke-width="2" stroke-miterlimit="10" stroke-linecap="round" stroke-linejoin="round"></path><path d="M16 7.125C13.2041 7.125 10.9375 9.39156 10.9375 12.1875C10.9375 14.9834 13.2041 17.25 16 17.25C18.7959 17.25 21.0625 14.9834 21.0625 12.1875" stroke="#23B9D6" stroke-width="2" stroke-miterlimit="10" stroke-linecap="round" stroke-linejoin="round"></path></g></svg> 