<svg xmlns="http://www.w3.org/2000/svg" xmlns:xlink="http://www.w3.org/1999/xlink" fill="none" version="1.1" width="30" height="30" viewBox="0 0 30 30"><g><g><rect x="0" y="0" width="30" height="30" rx="0" fill="#D8D8D8" fill-opacity="0.009999999776482582"/></g><g><path d="M16.0292,3.0208331C17.348599999999998,3,18.657899999999998,3.0104165,19.9672,3C20.0477,4.59373,20.6017,6.21871,21.7297,7.3437C22.8577,8.499929999999999,24.449,9.03117,26,9.20826L26,13.4061C24.5497,13.354,23.0893,13.0415,21.77,12.39572C21.1959,12.12489,20.662100000000002,11.78114,20.1384,11.42698C20.1283,14.4686,20.1485,17.510199999999998,20.1182,20.5415C20.0377,21.9998,19.5744,23.4477,18.7586,24.6456C17.4392,26.6455,15.153,27.9476,12.806329999999999,27.9893C11.3661,28.0726,9.92587,27.6664,8.69715,26.9164C6.66271,25.6768,5.232553,23.406,5.0210512,20.9685C5.000908139,20.4477,4.99083666,19.9269,5.0109797,19.4165C5.192267,17.4373,6.13899,15.5415,7.60943,14.2499C9.2813,12.74988,11.61789,12.03114,13.8034,12.45822C13.82355,13.9999,13.76312,15.5415,13.76312,17.083199999999998C12.76604,16.7498,11.59774,16.843600000000002,10.72152,17.468600000000002C10.087019999999999,17.895699999999998,9.60359,18.5519,9.3518,19.2915C9.1403,19.8227,9.20073,20.406,9.210799999999999,20.9685C9.45251,22.6768,11.04381,24.1143,12.73583,23.9581C13.86383,23.9477,14.94148,23.2706,15.5256,22.281C15.717,21.9373,15.9285,21.5831,15.9386,21.1769C16.0393,19.3123,15.999,17.458199999999998,16.0091,15.5936C16.0191,11.39573,15.999,7.20829,16.0292,3.0208331Z" fill="#BBBBBB" fill-opacity="1"/></g></g></svg>