<svg xmlns="http://www.w3.org/2000/svg" xmlns:xlink="http://www.w3.org/1999/xlink" fill="none" version="1.1" width="30" height="30" viewBox="0 0 30 30"><g><g><rect x="0" y="0" width="30" height="30" rx="0" fill="#D8D8D8" fill-opacity="0.009999999776482582"/></g><g><path d="M30,6.58198C28.9128,7.03403,27.7594,7.33112,26.578,7.46335C27.8187,6.76759,28.7463,5.67358,29.188,4.385349C28.0182,5.03533,26.7383,5.49389,25.4035,5.7413C23.7302,4.0854173,21.146,3.551794,18.8827,4.394811C16.619300000000003,5.23783,15.1351,7.28684,15.1375,9.565059999999999C15.1395,9.9897,15.193,10.412749999999999,15.297,10.8261C10.50844,10.59865,6.04883,8.47897,3.03,4.995525C2.4990300000000003,5.84272,2.21877,6.8068,2.218,7.78878C2.16449,9.630749999999999,3.11469,11.37214,4.741,12.41255C3.755,12.38543,1.9135,12.14136,1.9135,11.72102L1.9135,11.788820000000001C1.988983,14.4464,4.02506,16.6996,6.8145,17.212600000000002C6.34246,17.336399999999998,5.85475,17.400199999999998,5.3645,17.4024C4.99957,17.4037,4.63538,17.3719,4.277,17.307499999999997C5.06189,19.574199999999998,7.29767,21.1259,9.845,21.172C7.74113,22.7325,5.13537,23.583,2.45,23.5856C1.965384,23.5849,1.481223,23.5577,1,23.5042C3.72121,25.1369,6.88732,26.003,10.1205,25.9991C19.5154,26.0903,27.1654,18.961,27.1,10.175239999999999L27.1,9.45659C28.2396,8.66499,29.2213,7.69193,30,6.58198Z" fill="#BBBBBB" fill-opacity="1"/></g></g></svg>