<?xml version="1.0" encoding="UTF-8"?> <svg xmlns="http://www.w3.org/2000/svg" id="Ebene_1" data-name="Ebene 1" viewBox="0 0 498 97.92"><defs><style>.cls-1{fill:#fff;}.cls-2{fill:#d91d52;}</style></defs><title>raspberry-geek-logo</title><path class="cls-1" d="M15.71,46.92V76.4H0V.51H21.17A47,47,0,0,1,32.92,1.77c2.62.75,4.44,2.53,6.32,4.39,3.52,3.57,5,8.8,5,16.93,0,6.71-.94,10.47-2.35,13.58s-3.66,5-6.62,7L46.88,76.4H30.44L21,46.92Zm-.16-13.6h4.54c3.16,0,5.5-.38,6.58-1.81C28,29.8,28.51,27.59,28.51,24c0-4.07-.42-6.17-1.57-7.74s-3.44-2.27-6.53-2.27H15.55Z"></path><path class="cls-1" d="M72.67,42.29V40.88c0-3.91.15-6.27-.5-7.69a4,4,0,0,0-3.88-2.37c-2.94,0-4.23,1.62-4.23,5.38h-15c.14-5.43.88-7.89,3.79-11.62C56,21.19,60.07,18.24,68,18.24c7.37,0,12.64,2.21,15.72,6.48,2.64,3.76,4,6.32,4,14.89l-.19,36.74H73.7l0-4.57a25.77,25.77,0,0,1-4.16,4c-2.07,1.53-4.84,1.44-7.49,1.44A14,14,0,0,1,51.26,72.1c-2.38-2.69-3.61-6.49-3.61-12.34,0-5.41,1.85-9.84,4.83-12.41,3.14-2.71,5.47-4.62,12.13-5Zm0,10H70.06c-3.22,0-4.61.31-5.71,1.39s-1.67,2.23-1.67,5.06.35,3.57,1.07,4.43a4.88,4.88,0,0,0,3.87,1.64c1.86,0,3.17-.52,3.92-1.57s1.13-2.11,1.13-4.79Z"></path><path class="cls-1" d="M91,59.32h14.72a5.11,5.11,0,0,0,5.48,5A4.17,4.17,0,0,0,115.62,60a5.16,5.16,0,0,0-3-4.82,33.74,33.74,0,0,0-5.24-2.11,59,59,0,0,1-6.81-2.65,23.52,23.52,0,0,1-5.14-3.14C92.68,44.44,91,42.07,91,36.45a19.28,19.28,0,0,1,6.55-14c3-2.45,6.32-4.22,14.19-4.22,7.33,0,12.82,3.49,15.57,8.31,1.27,2.24,2.81,4.56,2.81,9.1h-14.7a4.63,4.63,0,0,0-4.65-4.84,4.28,4.28,0,0,0-4.53,4.12,4.89,4.89,0,0,0,1.89,4.26,17.9,17.9,0,0,0,6,2.43,37.51,37.51,0,0,1,8.08,3.12A18.31,18.31,0,0,1,126.64,48c3,2.74,3.89,6,3.89,11.87,0,5.27-1.92,9.27-6.06,13.21-2.66,2.55-6.18,4.19-13.7,4.19-8.32,0-13.36-3.35-16.5-7.71C93,67.25,91,65.2,91,59.32Z"></path><path class="cls-1" d="M134.52,97.92V18.59h14.14v4.07c1.87-2.59,5.15-5,10.64-5,6.53,0,9.64,2.91,11.86,6.91,1.88,3.37,2.71,9.72,2.71,15.75v11c0,9.64-.8,16.33-3.35,19.76s-5.33,5.66-11.4,5.66-8-2.41-9.75-4.14v25.3ZM149.2,58.48c0,3.87,1.24,6,4.51,6,3.09,0,5.16-1.48,5.16-9.09V39.42c0-4.81-1.12-8.22-4.83-8.48-2-.14-4.84.95-4.84,5.28Z"></path><path class="cls-1" d="M236.4,52.27l0,3.17c0,3.86.52,5.84,1.41,7.17a4.82,4.82,0,0,0,7.17.18c.78-.95,1-2,1.17-4.19h14.52A22.05,22.05,0,0,1,257,70.74c-3,4.29-7.68,6.52-15.56,6.52-7.53,0-11.65-2.06-15.07-6.3-3.07-3.8-4.84-9.64-4.84-20.27V44c0-10,1.24-15.71,4.79-19.71,3.12-3.49,8.41-6.17,15.08-6.17,7.67,0,12.81,3.05,15.87,7.71,2.69,4.07,3.92,9.48,3.92,18.28l.06,8.17Zm0-10.22h9.91v-2.7c0-3.63,0-5.07-.86-6.38a4,4,0,0,0-3.86-2,4.49,4.49,0,0,0-4.15,2.2c-.71,1.28-1.06,2.24-1.06,5.95Z"></path><path class="cls-1" d="M265.63,76.41V19.13h14.06v6c.66-1,4.82-6.88,15.09-6.88v14c-3.64,0-2.41,0-4.25,0-4.08,0-5.91,1-8.24,3.31-1.84,1.82-2.09,5.42-2.09,11.82v29.1Z"></path><path class="cls-1" d="M298.7,76.41V19.13h14.06v6c.66-1,4.82-6.88,15.09-6.88v14c-3.65,0-2.41,0-4.26,0-4.08,0-5.91,1-8.24,3.31-1.84,1.82-2.08,5.42-2.08,11.82v29.1Z"></path><path class="cls-1" d="M346.17,75.05,331.41,19h16.31l6.71,34.53L361.06,19h16.39L360.9,81.58c-1.65,6-4.36,8.74-6.83,10.18-6.2,3.62-11.41,3.1-18.22,3.1l.06-12.62c2.7,0,6.37.3,8.53-1.84A5.59,5.59,0,0,0,346.17,75.05Z"></path><path class="cls-1" d="M412.91,49.06V76.31H397.15V.5h20.49a39.46,39.46,0,0,1,11.74,1.38,15.3,15.3,0,0,1,7.1,4.78c3.31,4,5,6.06,5,18.37,0,15.82-5.87,19.42-8.88,21.25-4,2.25-7.51,2.79-13.12,2.79ZM413,35.42h6.6c4.1,0,6.33-2.34,6.33-10.63,0-9.8-3-10.63-7.19-10.63H413Z"></path><path class="cls-1" d="M446.34,15V0H462V15Zm.39,61.43V21.09h14.91V76.4Z"></path><path class="cls-1" d="M215.29,24.55c-2.28-4.36-5.92-6.29-12.33-6.29a11,11,0,0,0-9.26,4.27V.58H179.05V76.31h14.14l0-3.78c1.91,1.77,4.24,4.73,9.53,4.73,6.39,0,9.23-1.77,11.8-5s3.56-7.73,3.56-16.28V36.14A22.56,22.56,0,0,0,215.29,24.55Zm-11.9,30.67c0,7.61-2.08,9.08-5.16,9.08-3.27,0-4.51-2.1-4.51-6V36.07c0-4.33,2.85-5.42,4.84-5.28,3.71.26,4.83,3.66,4.83,8.48Z"></path><path class="cls-2" d="M481.43,57.92c-.45,0-1.88,0-2.36,0-2.75,0-7,1.89-7,9C472.07,75,476.53,77,484,77c1.33,0,5.28-.14,6.38-.21,5.65-.39,7.58-3.92,7.58-7.39V67.18a6.82,6.82,0,0,0-1.67-4.31h1.41V57.67H482.92v10h5.15V64h2.36c1.52,0,2.3,1.25,2.3,2.76s-.72,3.2-5.14,3.2-4.66,0-6.09-.08-3.73-.56-3.73-2.84,2.43-2.53,3.64-2.53C481.41,63.42,481.43,57.92,481.43,57.92Z"></path><polygon class="cls-2" points="472.41 55.91 472.41 39.92 478.25 39.92 478.25 49.22 482.24 49.22 482.24 40.43 487.83 40.43 487.83 49.24 492.02 49.24 492.02 39.92 497.74 39.92 497.74 55.91 472.41 55.91"></polygon><polygon class="cls-2" points="472.41 38.06 472.41 22.07 478.25 22.07 478.25 31.37 482.24 31.37 482.24 22.58 487.83 22.58 487.83 31.39 492.02 31.39 492.02 22.07 497.74 22.07 497.74 38.06 472.41 38.06"></polygon><polygon class="cls-2" points="472.41 20.09 472.41 13.44 481.78 13.44 472.41 7.45 472.41 0 483.19 7.72 497.74 0.13 497.74 7.99 488.97 12.17 490.77 13.44 497.74 13.44 497.74 20.09 472.41 20.09"></polygon></svg> 